<?xml version="1.0" encoding="UTF-8"?>
<svg width="640px" height="256px" viewBox="0 0 640 256" version="1.1" xmlns="http://www.w3.org/2000/svg" xmlns:xlink="http://www.w3.org/1999/xlink">
    <!-- Generator: Sketch 52.3 (67297) - http://www.bohemiancoding.com/sketch -->
    <title>Windows Installer Banner</title>
    <desc>Created with Sketch.</desc>
    <defs>
        <linearGradient x1="26.3868171%" y1="37.1937575%" x2="57.9393554%" y2="138.73977%" id="linearGradient-1">
            <stop stop-color="#31A6FF" offset="0%"></stop>
            <stop stop-color="#166DFF" offset="100%"></stop>
        </linearGradient>
        <circle id="path-2" cx="18.0041522" cy="18.0041522" r="18.0041522"></circle>
        <linearGradient x1="24.3947622%" y1="-9.94495519%" x2="67.2175965%" y2="115.217637%" id="linearGradient-4">
            <stop stop-color="#F46E8C" offset="0%"></stop>
            <stop stop-color="#D61C35" offset="100%"></stop>
        </linearGradient>
        <text id="text-5" font-family="Nunito-Bold, Nunito" font-size="40.65" font-weight="bold" line-spacing="45.1666667" fill="#FFFFFF">
            <tspan x="26.415725" y="101.061144">PrintNode</tspan>
        </text>
        <filter x="-5.4%" y="-27.7%" width="110.7%" height="164.2%" filterUnits="objectBoundingBox" id="filter-6">
            <feOffset dx="0" dy="2" in="SourceAlpha" result="shadowOffsetOuter1"></feOffset>
            <feGaussianBlur stdDeviation="4.5" in="shadowOffsetOuter1" result="shadowBlurOuter1"></feGaussianBlur>
            <feColorMatrix values="0 0 0 0 0   0 0 0 0 0   0 0 0 0 0  0 0 0 0.1 0" type="matrix" in="shadowBlurOuter1"></feColorMatrix>
        </filter>
    </defs>
    <g id="Windows-Installer-Banner" stroke="none" stroke-width="1" fill="none" fill-rule="evenodd">
        <g id="Group-Copy" transform="translate(327.000000, 60.000000)">
            <path d="M174.271491,27.72845 C169.215643,31.8553214 165.9875,38.1366026 165.9875,45.171857 C165.9875,57.6011304 176.063417,67.6770473 188.49269,67.6770473 C200.868094,67.6770473 210.910496,57.6882814 210.997313,45.3333333 L225.895848,45.3333333 C250.840709,45.3333333 271.062514,65.5551388 271.062514,90.5 L271.062514,91.1876586 C271.062514,116.13252 250.840709,136.354325 225.895848,136.354325 L45.1666667,136.354325 C20.2218055,136.354325 -1.11559903e-14,116.13252 -1.42108547e-14,91.1876586 L-1.42108547e-14,90.5 C-1.72657192e-14,65.5551388 20.2218055,45.3333333 45.1666667,45.3333333 L50.1533166,45.3333333 C54.0652231,19.7971326 81.9190238,0 115.698558,0 C141.162988,0 163.259956,11.2502687 174.271491,27.72845 Z" id="Combined-Shape" fill="url(#linearGradient-1)" fill-rule="nonzero"></path>
            <g id="container/circle" transform="translate(170.504167, 27.200000)">
                <circle id="Shadow" fill-rule="nonzero" cx="18.0041522" cy="18.0041522" r="18.0041522"></circle>
                <mask id="mask-3" fill="white">
                    <use xlink:href="#path-2"></use>
                </mask>
                <use id="Background-Color" fill="#EE7F8E" fill-rule="nonzero" xlink:href="#path-2"></use>
                <circle id="Border" fill-rule="nonzero" mask="url(#mask-3)" cx="18.0041522" cy="18.0041522" r="18.0041522"></circle>
            </g>
            <ellipse id="Oval" fill="url(#linearGradient-4)" fill-rule="nonzero" cx="188.570833" cy="45.3333333" rx="18.0666667" ry="18.1333333"></ellipse>
            <g id="PrintNode" fill="#FFFFFF" fill-opacity="1">
                <use filter="url(#filter-6)" xlink:href="#text-5"></use>
                <use xlink:href="#text-5"></use>
            </g>
        </g>
        <g id="cbord_logo-copy" transform="translate(42.000000, 100.000000)" fill-rule="nonzero">
            <path d="M264.30753,72.5800209 C263.817877,71.7107539 263.554217,70.8036926 263.554217,69.7832486 C263.554217,68.7628047 263.817877,67.8557434 264.30753,66.9864763 C264.797184,66.1172093 265.475166,65.4747075 266.303811,64.9833826 C267.170121,64.4920578 268.074097,64.2274982 269.09107,64.2274982 C270.070378,64.2274982 271.012019,64.4920578 271.87833,64.9833826 C272.74464,65.4747075 273.384956,66.1550035 273.87461,66.9864763 C274.364264,67.8557434 274.627923,68.7628047 274.627923,69.7832486 C274.627923,70.8036926 274.364264,71.7107539 273.87461,72.5800209 C273.384956,73.449288 272.706974,74.0917898 271.87833,74.5831146 C271.012019,75.0744395 270.108043,75.3012048 269.09107,75.3012048 C268.111763,75.3012048 267.170121,75.0744395 266.303811,74.5831146 C265.475166,74.0917898 264.83485,73.4114938 264.30753,72.5800209 Z M264.797184,72.6556094 C265.286838,73.3736996 265.889488,73.9406129 266.642802,74.3563493 C267.396115,74.7720857 268.22476,74.9610568 269.128736,74.9610568 C270.070378,74.9610568 270.936688,74.7342915 271.727667,74.2807609 C272.518646,73.8272302 273.158962,73.1847285 273.61095,72.3910498 C274.062938,71.5973712 274.288932,70.7281041 274.288932,69.7832486 C274.288932,68.8383931 274.062938,67.9691261 273.61095,67.1754474 C273.158962,66.3817688 272.518646,65.739267 271.727667,65.2857364 C270.936688,64.8322058 270.070378,64.6054404 269.128736,64.6054404 C268.187094,64.6054404 267.320784,64.8322058 266.529805,65.2857364 C265.738826,65.739267 265.098509,66.3817688 264.646521,67.1754474 C264.194533,67.9691261 263.968539,68.8383931 263.968539,69.7832486 C263.930874,70.8414868 264.232199,71.7863423 264.797184,72.6556094 Z M267.283118,72.3532556 L267.283118,70.0478082 L269.09107,70.0478082 C269.09107,70.0478082 269.128736,70.0478082 269.128736,70.0478082 C269.128736,70.0478082 269.166402,70.0478082 269.166402,70.0478082 L270.936688,72.3532556 L271.464007,72.3532556 L269.61839,69.9722197 C270.108043,69.8966313 270.4847,69.7076602 270.786025,69.4053064 C271.087351,69.1029527 271.238013,68.7250105 271.238013,68.2336856 C271.238013,67.9313318 271.162682,67.7045665 271.012019,67.4778012 C270.861357,67.2510359 270.673028,67.099859 270.447034,66.9864763 C270.22104,66.8730937 269.995046,66.7975052 269.806718,66.759711 C269.580724,66.7219168 269.392396,66.6841226 269.204067,66.6841226 L267.283118,66.6841226 L267.207787,66.6841226 L266.906461,66.6841226 L266.906461,72.3154614 L267.283118,72.3154614 L267.283118,72.3532556 Z M267.283118,68.309274 L267.283118,67.099859 L269.279399,67.099859 C269.693721,67.099859 270.070378,67.2132416 270.334037,67.4022127 C270.635363,67.5911838 270.786025,67.8935376 270.786025,68.2336856 C270.786025,68.6872162 270.635363,69.0273642 270.371703,69.2541295 C270.070378,69.4808949 269.61839,69.5942775 268.978073,69.5942775 L267.283118,69.5942775 L267.283118,68.309274 Z" id="Shape" fill="#464646"></path>
            <path d="M258.389118,27.6452662 L258.389118,0 L265.768958,0 L265.768958,47.2139358 C265.768958,62.8045801 253.653392,75.3012048 238.183353,75.3012048 C222.634385,75.3012048 210.400425,62.8447622 210.400425,47.2139358 C210.400425,31.2616528 223.305279,18.9257564 238.183353,18.9257564 C246.234087,18.8855743 253.416606,22.2608684 258.389118,27.6452662 Z M258.389118,47.0933896 C258.389118,35.6414988 249.233381,26.439804 238.104424,26.439804 C226.857074,26.439804 217.81973,35.6414988 217.81973,47.0933896 C217.81973,58.4247342 226.857074,67.7469751 238.104424,67.7469751 C249.233381,67.7469751 258.389118,58.4247342 258.389118,47.0933896 Z" id="Shape" fill="#464646"></path>
            <path d="M181.609017,41.797454 C181.532975,21.1637934 200.429403,17.7179305 208.185684,17.7179305 L208.185684,25.5230175 C197.57783,25.5230175 189.175193,29.5916266 188.756962,40.8425764 L188.756962,75.3012048 L181.647038,75.3012048 L181.609017,41.797454 Z" id="Shape" fill="#464646"></path>
            <path d="M172.749823,46.6121751 C172.749823,62.5778869 160.515863,75.3012048 144.966895,75.3012048 C129.536321,75.3012048 117.38129,62.5778869 117.38129,46.6121751 C117.38129,30.4412485 129.299534,17.7179305 144.966895,17.7179305 C159.844969,17.7179305 172.749823,30.3591625 172.749823,46.6121751 Z M165.369983,46.5300892 C165.369983,34.8328453 156.332638,25.4340072 145.085289,25.4340072 C133.956332,25.4340072 124.800594,34.8328453 124.800594,46.5300892 C124.800594,58.1042042 133.956332,67.6261711 145.085289,67.6261711 C156.332638,67.6261711 165.369983,58.1042042 165.369983,46.5300892 Z" id="Shape" fill="#005CB9"></path>
            <path d="M108.522325,47.2139358 C108.522325,62.8045801 96.2883651,75.3012048 80.7393972,75.3012048 C65.3088224,75.3012048 53.1537916,62.8447622 53.1537916,47.2139358 L53.1537916,47.0933896 L53.1537916,0 L60.5336317,0 L60.5336317,27.6452662 C65.5061443,22.2608684 72.5702693,18.8855743 80.6999328,18.8855743 C95.6174705,18.8855743 108.522325,31.2616528 108.522325,47.2139358 Z M101.142484,47.0933896 C101.142484,35.6414988 92.1051402,26.439804 80.8577903,26.439804 C69.7288336,26.439804 60.5730961,35.6414988 60.5730961,47.0933896 C60.5730961,58.4247342 69.7288336,67.7469751 80.8577903,67.7469751 C92.1051402,67.7469751 101.142484,58.4247342 101.142484,47.0933896 Z" id="Shape" fill="#464646"></path>
            <path d="M43.4463987,31.6185505 L43.3246008,31.4954576 C35.1641395,23.2482335 21.9693638,23.2482335 13.8089025,31.4954576 C5.64844116,39.6606197 5.64844116,53.0777454 13.8089025,61.3249694 C21.8475658,69.5721934 35.2453381,69.5721934 43.3246008,61.3249694 L48.6431104,66.7000259 L48.6431104,66.8231188 C37.3971015,78.0656033 19.6958024,78.1886962 8.44979355,66.8231188 C-2.7962153,55.3344485 -2.7962153,37.4449476 8.32799562,26.1204011 C19.6552031,14.6317308 37.9654919,15.2061643 48.724309,26.1204011 L43.4463987,31.6185505 Z" id="Shape" fill="#464646"></path>
        </g>
    </g>
</svg>